<svg width="1920" height="850" viewBox="0 0 1920 850" fill="none" xmlns="http://www.w3.org/2000/svg">
<g clip-path="url(#clip0)">
<path fill-rule="evenodd" clip-rule="evenodd" d="M0 851H1920V802.081C1882.34 808.321 1843.62 810.908 1803.86 809.838C1744.22 808.236 1751.13 793.597 1685.88 795.79C1620.63 797.981 1635.91 811.628 1569.01 809.838C1502.11 808.051 1517.9 791.34 1444.63 795.79C1371.35 800.238 1388.94 818.195 1323.33 816.449C1257.73 814.704 1270.33 793.6 1203.48 795.79C1136.64 797.978 1148.7 811.581 1083.16 809.838C1017.61 808.097 1029.42 791.684 963.289 795.79C897.162 799.895 910.324 818.078 848.566 816.449C786.809 814.82 785.89 793.639 721.405 795.79C656.921 797.939 667.69 809.838 607.288 809.838C546.886 809.838 539.244 798.089 480 802.081C420.756 806.075 446.801 816.449 386.801 816.449C326.801 816.449 310.018 797.888 240 802.081C169.982 806.275 180.106 816.449 120.084 816.449C80.07 816.449 40.0416 811.66 0 802.081V851Z" fill="white"/>
</g>
<defs>
<clipPath id="clip0">
<rect width="1920" height="850" fill="white"/>
</clipPath>
</defs>
</svg>
